<?xml version="1.0" standalone="no"?><!DOCTYPE svg PUBLIC "-//W3C//DTD SVG 1.1//EN" "http://www.w3.org/Graphics/SVG/1.1/DTD/svg11.dtd"><svg t="1608618972303" class="icon" viewBox="0 0 1024 1024" version="1.1" xmlns="http://www.w3.org/2000/svg" p-id="9611" xmlns:xlink="http://www.w3.org/1999/xlink" width="20" height="20"><defs><style type="text/css"></style></defs><path d="M41.059097 40.629677A84.562581 84.562581 0 0 1 100.219871 16.516129h657.341935l246.850065 247.477677v660.777291c0 21.669161-8.720516 42.446452-24.27871 57.707355a83.109161 83.109161 0 0 1-58.599226 23.84929H99.427097c-21.999484 0-43.041032-8.588387-58.599226-23.915355A80.995097 80.995097 0 0 1 16.516129 924.705032V98.997677c0-21.900387 8.786581-42.875871 24.542968-58.334967z" fill="#91D277" p-id="9612"></path><path d="M16.516129 644.129032h990.967742v276.413936a82.64671 82.64671 0 0 1-82.580645 82.712774h-825.806452c-45.617548 0-82.580645-37.029161-82.580645-82.712774V644.129032z" fill="#51B95A" p-id="9613"></path><path d="M238.360774 729.154065l72.538839 101.97058L232.712258 941.419355h30.026323l63.025548-90.970839 63.322839 90.970839h30.026322l-78.781935-110.29471 73.133419-101.97058h-30.026322l-57.674323 82.646709-57.377032-82.646709h-30.026323z m209.292387 0V941.419355h146.86142v-21.107613h-122.780904v-191.157677h-24.080516z m251.804904-4.162065c-21.999484 0-40.134194 4.756645-54.106839 14.269935-15.756387 10.107871-23.485935 24.675097-23.485936 43.107097 0 17.837419 8.026839 31.512774 24.377807 41.026065 6.837677 3.567484 23.188645 9.51329 48.755613 17.242838 23.783226 6.837677 38.945032 11.891613 44.890838 15.459097 13.972645 7.432258 21.107613 17.837419 21.107613 31.215484 0 11.297032-5.351226 20.215742-16.053677 26.756129-10.702452 6.540387-24.972387 9.810581-42.215226 9.810581-19.026581 0-33.296516-4.162065-43.107097-11.891613-10.702452-8.621419-17.242839-22.296774-19.323871-40.728774h-24.080516c1.783742 26.161548 10.999742 45.485419 27.648 58.268903 14.269935 10.702452 33.891097 16.053677 58.863484 16.053677 25.269677 0 45.188129-5.351226 60.052645-15.756387 14.864516-10.702452 22.296774-25.566968 22.296774-43.998967 0-19.323871-8.91871-34.188387-26.458838-44.890839-8.91871-5.351226-27.35071-12.188903-55.296-20.513032-20.513032-5.945806-33.593806-10.405161-38.945033-13.378065-12.188903-6.540387-18.13471-15.161806-18.134709-25.864258 0-12.188903 5.053935-21.107613 15.161806-27.053419 8.91871-5.351226 21.107613-7.729548 36.864-7.729549 17.242839 0 30.620903 3.567484 40.134194 11.297032 9.216 7.432258 15.161806 18.72929 17.837419 34.188388h24.080516c-2.081032-22.296774-10.107871-39.242323-24.377806-50.539355-13.675355-10.999742-32.701935-16.350968-56.485161-16.350968zM558.905806 359.589161L705.734194 165.16129H607.132903l-97.445161 129.222194L412.011355 165.16129H313.806452l146.663225 194.427871L313.806452 553.984h98.237935l97.643355-129.222194 97.445161 129.222194h98.667355l-146.861419-194.427871z" fill="#FFFFFF" p-id="9614"></path><path d="M1005.27071 264.258065h-164.005162a83.538581 83.538581 0 0 1-58.66529-23.915355 81.127226 81.127226 0 0 1-24.27871-57.806452V16.780387l246.949162 247.477678" fill="#51B95A" p-id="9615"></path></svg>