<?xml version="1.0" standalone="no"?><!DOCTYPE svg PUBLIC "-//W3C//DTD SVG 1.1//EN" "http://www.w3.org/Graphics/SVG/1.1/DTD/svg11.dtd"><svg t="1608620067948" class="icon" viewBox="0 0 1024 1024" version="1.1" xmlns="http://www.w3.org/2000/svg" p-id="14463" xmlns:xlink="http://www.w3.org/1999/xlink" width="20" height="20"><defs><style type="text/css"></style></defs><path d="M971.776 244.736V962.56c0 33.792-27.648 60.416-60.416 60.416H112.64c-33.792 1.024-61.44-26.624-61.44-59.392V60.416C51.2 27.648 78.848 0 112.64 0h615.424l243.712 244.736z" fill="#3D5DB0" p-id="14464"></path><path d="M972.8 245.76H788.48c-33.792 0-60.416-26.624-60.416-60.416V0L972.8 245.76z" fill="#FFFFFF" opacity=".5" p-id="14465"></path><path d="M321.536 356.352h31.744v362.496h-31.744zM670.72 356.352h31.744v362.496h-31.744z" fill="#FEFEFE" p-id="14466"></path><path d="M352.256 482.304h327.68v40.96h-327.68zM352.256 575.488h327.68v40.96h-327.68zM352.256 657.408h327.68v40.96h-327.68zM352.256 390.144h327.68v40.96h-327.68z" fill="#FEFEFE" p-id="14467"></path><path d="M393.216 359.424h236.544v359.424H393.216z" fill="#FEFEFE" p-id="14468"></path><path d="M580.608 548.864l-105.472 56.32c-6.144 3.072-13.312-1.024-13.312-8.192V480.256c0-7.168 7.168-11.264 13.312-7.168l105.472 61.44c6.144 3.072 6.144 11.264 0 14.336z" fill="#3D5DB0" p-id="14469"></path></svg>