<?xml version="1.0" standalone="no"?><!DOCTYPE svg PUBLIC "-//W3C//DTD SVG 1.1//EN" "http://www.w3.org/Graphics/SVG/1.1/DTD/svg11.dtd"><svg t="1608620080895" class="icon" viewBox="0 0 1024 1024" version="1.1" xmlns="http://www.w3.org/2000/svg" p-id="15260" xmlns:xlink="http://www.w3.org/1999/xlink" width="20" height="20"><defs><style type="text/css"></style></defs><path d="M0 0h1024v1024H0z" fill="#D8D8D8" fill-opacity="0" p-id="15261"></path><path d="M509.44 440.32h-179.2v35.84h179.2v-35.84z m0-107.52h-179.2v35.84h179.2V332.8z m-179.2 358.4h394.24v-35.84H330.24v35.84z m514.432-299.392L623.488 153.6H276.48A71.68 71.68 0 0 0 204.8 225.28v573.44c0 39.594667 32.085333 71.68 71.68 71.68h501.76a71.68 71.68 0 0 0 71.68-71.68V404.48l-6.357333-6.314667 1.109333-6.357333zM634.88 219.221333l156.885333 167.338667H670.72a35.84 35.84 0 0 1-35.84-35.84V219.221333z m179.2 579.498667a35.84 35.84 0 0 1-35.84 35.84H276.48a35.84 35.84 0 0 1-35.84-35.84V225.28a35.84 35.84 0 0 1 35.84-35.84h322.56v161.28c0 39.594667 32.085333 71.68 71.68 71.68h143.36v376.32zM330.24 583.68h394.24v-35.84H330.24v35.84z" fill="#2A8DFF" p-id="15262"></path></svg>