<?xml version="1.0" standalone="no"?><!DOCTYPE svg PUBLIC "-//W3C//DTD SVG 1.1//EN" "http://www.w3.org/Graphics/SVG/1.1/DTD/svg11.dtd"><svg t="1608619044531" class="icon" viewBox="0 0 1024 1024" version="1.1" xmlns="http://www.w3.org/2000/svg" p-id="11385" xmlns:xlink="http://www.w3.org/1999/xlink" width="20" height="20"><defs><style type="text/css"></style></defs><path d="M88.210286 14.811429C78.994286 24.685714 73.142857 37.046857 73.142857 49.408v888.685714c0 12.324571 5.010286 25.490286 15.067429 34.523429 10.020571 9.874286 22.601143 14.811429 35.108571 14.811428h775.68c12.507429 0 25.892571-4.937143 35.108572-14.811428 10.020571-9.874286 15.067429-22.198857 15.067428-34.56V216.137143L733.988571 0H123.245714c-12.470857 0-25.892571 4.973714-35.108571 14.811429z" fill="#FF5562" p-id="11386"></path><path d="M914.761143 215.990857h-129.718857c-12.763429 0-26.331429-4.900571-35.693715-14.701714a46.116571 46.116571 0 0 1-15.323428-34.304V0L950.857143 215.990857h-36.096z" fill="#FFBBC0" p-id="11387"></path><path d="M207.36 547.620571c0-4.900571 0.402286-8.850286 1.243429-11.885714a11.995429 11.995429 0 0 1 4.681142-6.948571 22.601143 22.601143 0 0 1 9.947429-3.328c4.315429-0.585143 9.910857-0.877714 16.896-0.877715h49.115429c15.323429 0 28.233143 1.28 38.802285 3.84 10.605714 2.56 19.2 6.838857 25.965715 12.909715 6.692571 6.070857 11.593143 14.006857 14.628571 23.917714 2.998857 9.874286 4.534857 22.052571 4.534857 36.498286s-1.645714 26.733714-4.900571 37.010285c-2.816 9.508571-7.936 18.139429-14.994286 25.124572a60.342857 60.342857 0 0 1-25.929143 14.336c-10.569143 2.998857-23.259429 4.534857-38.107428 4.534857h-36.571429v70.509714a17.92 17.92 0 0 1-5.229714 12.580572c-3.474286 3.730286-9.289143 5.595429-17.408 5.595428-8.155429 0-13.933714-2.011429-17.444572-5.961143a18.432 18.432 0 0 1-5.193143-12.214857v-205.641143z m45.312 96h36.571429c14.848 0 25.014857-3.218286 30.464-9.764571 5.485714-6.509714 8.192-17.115429 8.192-31.780571 0-7.68-1.024-13.970286-2.962286-18.834286a29.037714 29.037714 0 0 0-8.192-11.702857 28.489143 28.489143 0 0 0-12.178286-5.924572 69.668571 69.668571 0 0 0-15.36-1.572571h-36.571428v79.579428z m227.401143-119.04c18.102857 0 33.755429 3.072 46.848 9.252572 13.092571 6.144 23.917714 14.628571 32.402286 25.490286 8.411429 10.825143 14.738286 23.625143 18.797714 38.4 4.022857 14.774857 6.107429 30.756571 6.107428 48.018285 0 18.358857-2.121143 35.108571-6.290285 50.102857-3.657143 14.043429-10.24 27.172571-19.163429 38.582858a86.345143 86.345143 0 0 1-32.036571 24.795428c-12.763429 5.778286-27.721143 8.704-44.909715 8.704h-66.194285c-8.118857 0-13.275429-1.353143-15.469715-4.022857-2.194286-2.633143-3.291429-6.582857-3.291428-11.702857v-211.931429c0-5.12 1.024-8.996571 3.108571-11.702857 2.084571-2.633143 7.314286-4.022857 15.652572-4.022857h64.438857z m-37.961143 207.030858h39.716571c38.034286 0 57.124571-28.964571 57.124572-86.930286a183.003429 183.003429 0 0 0-3.145143-35.620572 67.181714 67.181714 0 0 0-10.788571-26.331428 48.822857 48.822857 0 0 0-20.224-16.274286c-8.338286-3.730286-18.907429-5.558857-31.670858-5.558857h-31.012571v170.715429z m291.474286-108.909715c6.765714 0 12.068571 1.609143 16.054857 4.864 3.218286 3.254857 4.864 8.265143 4.864 14.994286 0 7.021714-1.609143 11.958857-4.864 14.884571-3.218286 2.925714-8.594286 4.352-16.018286 4.352H659.748571v95.305143c0 3.254857-1.792 6.473143-5.412571 9.618286-3.584 3.145143-9.435429 4.717714-17.554286 4.717714-8.155429 0-13.897143-1.572571-17.261714-4.754285-3.364571-3.108571-5.046857-6.290286-5.046857-9.581715V543.817143c0-7.241143 1.865143-12.214857 5.558857-14.994286 3.730286-2.816 9.289143-4.205714 16.749714-4.205714h107.593143c6.729143 0 11.812571 1.462857 15.140572 4.388571 3.364571 2.889143 5.193143 7.936 5.412571 15.140572 0.256 7.241143-1.462857 12.288-5.229714 15.213714-3.730286 2.925714-8.96 4.388571-15.652572 4.388571H659.748571v58.989715h73.837715z" fill="#FFFFFF" p-id="11388"></path></svg>