<?xml version="1.0" standalone="no"?><!DOCTYPE svg PUBLIC "-//W3C//DTD SVG 1.1//EN" "http://www.w3.org/Graphics/SVG/1.1/DTD/svg11.dtd"><svg t="1608683497687" class="icon" viewBox="0 0 1024 1024" version="1.1" xmlns="http://www.w3.org/2000/svg" p-id="3150" xmlns:xlink="http://www.w3.org/1999/xlink" width="32" height="32"><defs><style type="text/css"></style></defs><path d="M183.4 64c-11.2 0-23.1 4.5-31.4 13.4-8.2 9-13.4 20.2-13.4 31.4v806.4c0 11.2 4.5 23.1 13.4 31.4 9 9 20.2 13.4 31.4 13.4h657.1c11.2 0 23.1-4.5 31.4-13.4 9-9 13.4-20.2 13.4-31.4V317.9L631.4 64h-448z m0 0" fill="#D9D9D9" p-id="3151"></path><path d="M885.3 317.9H676.2c-11.2 0-23.1-4.5-31.4-13.4-9-8.2-13.4-20.2-13.4-31.4V64l253.9 253.9z m0 0" fill="#BFBFBF" p-id="3152"></path><path d="M509.6 670.9c-22.6 0-40.9 18-40.9 40.1s18.3 40.1 40.9 40.1c22.6 0 40.9-18 40.9-40.1s-18.3-40.1-40.9-40.1zM598.8 417c-21.8-19.2-51-28.9-87.9-28.9-35 0-63.3 9.5-84.8 28.5s-34.1 45.2-34.8 69.3c-0.7 24.1 56.7 19.1 58.8 7.2 2.2-12.6 11.7-33 22.6-42.2 11-9.2 24.6-13.9 40.9-13.9 16.9 0 30.4 4.5 40.3 13.3 9.9 8.9 15 19.6 15 32 0 8.9-2.9 17.1-8.5 24.6-3.6 4.7-14.8 14.7-33.5 29.9s-31.2 28.9-37.4 41c-6.2 12.2-9.4 27.6-9.4 46.5 0 1.9 0.1 6.9 0.3 15.3h58.2c-0.3-17.6 1.2-29.9 4.5-36.7 3.2-6.9 11.7-15.9 25.2-27.1 26.1-21.7 43.1-38.9 51.2-51.5 8-12.6 12-26 11.9-40.1 0-25.6-10.8-47.9-32.6-67.2z m0 0" fill="#FFFFFF" p-id="3153"></path></svg>