<?xml version="1.0" standalone="no"?><!DOCTYPE svg PUBLIC "-//W3C//DTD SVG 1.1//EN" "http://www.w3.org/Graphics/SVG/1.1/DTD/svg11.dtd"><svg t="1608619017100" class="icon" viewBox="0 0 1024 1024" version="1.1" xmlns="http://www.w3.org/2000/svg" p-id="10560" xmlns:xlink="http://www.w3.org/1999/xlink" width="20" height="20"><defs><style type="text/css"></style></defs><path d="M720 2.816V184.32c0 19.2 19.2 39.68 39.68 39.68H944l-27.616-27.584 28 27.584v761.6c0 19.2-19.456 38.4-38.944 38.4H87.36C67.84 1024 48.416 1004.8 48.416 985.6V38.4C48.416 19.2 67.84 0 87.36 0H717.12L720 2.816zM679.04 724.8a29.12 29.12 0 0 0 23.04 10.336c3.488 0 8.096 0 10.4-1.152 12.704-4.608 20.8-17.216 20.8-29.824V384.128c0-17.216-15.04-32.128-32.32-32.128-17.312 0-32.32 14.912-32.32 32.128v238.592l-151.136-157.152a29.12 29.12 0 0 0-23.104-10.336 30.816 30.816 0 0 0-23.04 10.336l-153.472 158.304v-239.744c0-17.216-15.04-32.128-32.32-32.128s-32.32 14.912-32.32 32.128v320c0 12.64 8.096 25.28 20.8 29.856 12.672 4.576 26.528 1.152 35.744-8.032l184.64-191.552 184.608 190.4z" fill="#2C97FF" p-id="10561"></path><path d="M720 0v184.32c0 19.2 19.2 39.68 39.68 39.68H944l-224-224z" fill="#99D3FF" p-id="10562"></path></svg>