<?xml version="1.0" standalone="no"?><!DOCTYPE svg PUBLIC "-//W3C//DTD SVG 1.1//EN" "http://www.w3.org/Graphics/SVG/1.1/DTD/svg11.dtd"><svg t="1608618411609" class="icon" viewBox="0 0 1024 1024" version="1.1" xmlns="http://www.w3.org/2000/svg" p-id="8303" xmlns:xlink="http://www.w3.org/1999/xlink" width="20" height="20"><defs><style type="text/css"></style></defs><path d="M883.2 2.3H141.6c-29.7 0-53.7 23.8-53.7 53.2v914.4c0 29.4 24.1 53.2 53.7 53.2H586c14 0 27.3-5.5 37.2-15.2l298.2-295c9.9-9.8 15.4-23 15.4-36.8V55.7c0.1-29.6-23.9-53.4-53.6-53.4zM571.5 969.8H163.1c-11.9 0-21.5-9.5-21.5-21.3V76.7c0-11.7 9.6-21.3 21.5-21.3h698.6c11.9 0 21.5 9.5 21.5 21.3v584.8h-311v308.3h-0.7z m54.4-39.2v-216h218.3l-218.3 216z" fill="" p-id="8304"></path><path d="M386.5 288.2h315.7c14.5 0 26.3-11.8 26.3-26.3s-11.8-26.3-26.3-26.3H386.5c-14.5 0-26.3 11.8-26.3 26.3s11.8 26.3 26.3 26.3zM728.5 446.1c0-14.5-11.8-26.3-26.3-26.3H386.5c-14.5 0-26.3 11.8-26.3 26.3s11.8 26.3 26.3 26.3h315.7c14.5 0 26.3-11.8 26.3-26.3z" fill="" p-id="8305"></path></svg>