<?xml version="1.0" standalone="no"?><!DOCTYPE svg PUBLIC "-//W3C//DTD SVG 1.1//EN" "http://www.w3.org/Graphics/SVG/1.1/DTD/svg11.dtd"><svg t="1608618287077" class="icon" viewBox="0 0 1160 1024" version="1.1" xmlns="http://www.w3.org/2000/svg" p-id="4826" xmlns:xlink="http://www.w3.org/1999/xlink" width="22.65625" height="20"><defs><style type="text/css"></style></defs><path d="M1014.715733 0c66.7648 0 120.968533 54.203733 120.968534 121.0368v744.721067c0 66.7648-54.203733 121.0368-120.968534 121.0368H121.0368A121.0368 121.0368 0 0 1 0 865.757867V120.968533C0 54.272 54.203733 0 121.0368 0h893.610667zM487.970133 257.160533a76.322133 76.322133 0 0 0-115.575466 65.399467V664.234667a76.322133 76.322133 0 0 0 115.575466 65.399466l284.672-170.8032c36.181333-21.7088 47.786667-68.539733 26.146134-104.721066a75.502933 75.502933 0 0 0-26.146134-26.282667z" fill="#0047CC" p-id="4827"></path></svg>